<?xml version="1.0" encoding="iso-8859-1"?>
<!-- Uploaded to: SVG Repo, www.svgrepo.com, Generator: SVG Repo Mixer Tools -->
<svg height="800px" width="800px" version="1.1" id="Layer_1" xmlns="http://www.w3.org/2000/svg" xmlns:xlink="http://www.w3.org/1999/xlink" 
	 viewBox="0 0 512 512" xml:space="preserve">
<circle style="fill:#273B7A;" cx="256" cy="256" r="256"/>
<path style="fill:#121149;" d="M501.019,330.352L256,85.333l-63.785,195.951l-80.617,98.045l132.38,132.38
	c3.984,0.184,7.99,0.29,12.019,0.29C371.524,512,469.161,435.472,501.019,330.352z"/>
<polygon style="fill:#D35933;" points="111.6,379.33 256,85.333 400.4,379.33 "/>
<polygon style="fill:#FFEDB5;" points="175.138,249.966 142.539,316.337 369.459,316.337 336.862,249.966 "/>
<polygon style="fill:#FFC61B;" points="256,85.333 208.584,181.872 303.416,181.872 "/>
<g>
	<polygon style="fill:#D35933;" points="208.584,181.872 175.138,249.966 336.862,249.966 303.416,181.872 	"/>
	<polygon style="fill:#D35933;" points="142.539,316.337 111.6,379.33 400.4,379.33 369.459,316.337 	"/>
</g>
<polygon style="fill:#FEE187;" points="336.862,249.966 255.998,249.966 255.998,316.337 369.459,316.337 "/>
<polygon style="fill:#EAA22F;" points="256,85.333 255.998,85.335 255.998,181.872 303.416,181.872 "/>
<g>
	<polygon style="fill:#B54324;" points="303.416,181.872 255.998,181.872 255.998,249.966 336.862,249.966 	"/>
	<polygon style="fill:#B54324;" points="369.459,316.337 255.998,316.337 255.998,379.33 400.4,379.33 	"/>
</g>
</svg>